<svg width="24" height="24" viewBox="0 0 24 24" fill="none" xmlns="http://www.w3.org/2000/svg">
<path d="M23.3337 11.7032V19.9532C23.3595 20.4087 23.2892 20.8645 23.1272 21.291C22.9653 21.7175 22.7153 22.1052 22.3937 22.4288C22.072 22.7523 21.6859 23.0045 21.2603 23.169C20.8347 23.3334 20.3793 23.4064 19.9237 23.3832H3.41366C2.96067 23.406 2.50792 23.3338 2.08452 23.1712C1.66113 23.0085 1.27647 22.759 0.955282 22.4388C0.634095 22.1185 0.383496 21.7346 0.219603 21.3117C0.0557092 20.8888 -0.0178524 20.4362 0.00365658 19.9832V3.3932C-0.0176418 2.94322 0.0551302 2.49377 0.217322 2.0735C0.379513 1.65323 0.627561 1.27135 0.945627 0.952342C1.26369 0.633334 1.64479 0.384207 2.06458 0.220774C2.48437 0.0573422 2.93362 -0.0167849 3.38366 0.00318409H19.9937C20.4404 -0.0111013 20.8853 0.0671942 21.3003 0.233165C21.7153 0.399135 22.0915 0.649204 22.4052 0.967601C22.7189 1.286 22.9633 1.66583 23.1231 2.08326C23.2829 2.5007 23.3546 2.94672 23.3337 3.3932V11.7032Z" fill="#F0F3FF"/>
<path d="M12.3337 10.1031L12.5837 9.78318C12.8734 9.37103 13.2584 9.03487 13.7058 8.80332C14.1532 8.57178 14.6499 8.45166 15.1537 8.45316C15.7431 8.41844 16.3336 8.49648 16.8937 8.68315C17.5514 8.9186 18.1298 9.33405 18.5629 9.88212C18.9961 10.4302 19.2666 11.0889 19.3437 11.7832C19.4313 12.2312 19.4748 12.6867 19.4737 13.1432C19.4737 15.1432 19.4737 17.1632 19.4737 19.2032C19.4737 19.4232 19.4737 19.4931 19.1937 19.4931C18.2937 19.4931 17.3937 19.4931 16.4837 19.4931C16.2637 19.4931 16.2237 19.4232 16.2237 19.2132C16.2237 17.3932 16.2237 15.5631 16.2237 13.7331C16.237 13.2756 16.1588 12.8201 15.9937 12.3932C15.8508 12.0211 15.594 11.7038 15.26 11.4865C14.9259 11.2692 14.5317 11.163 14.1337 11.1831C13.7555 11.1813 13.3862 11.298 13.0777 11.5168C12.7692 11.7356 12.537 12.0456 12.4137 12.4032C12.3284 12.6641 12.2978 12.9399 12.3237 13.2132C12.3237 15.2132 12.3237 17.2132 12.3237 19.2132C12.3237 19.4732 12.2437 19.5332 12.0037 19.5332C11.1037 19.5332 10.2137 19.5332 9.32371 19.5332C9.11371 19.5332 9.05371 19.4832 9.05371 19.2732V8.77317C9.05371 8.56317 9.05371 8.49314 9.32371 8.49314C10.2237 8.49314 11.1237 8.49314 12.0237 8.49314C12.2437 8.49314 12.3337 8.54318 12.3237 8.78318C12.3337 9.16318 12.3337 9.63313 12.3337 10.1031Z" fill="#020201"/>
<path d="M3.89355 13.9732C3.89355 12.2332 3.89355 10.4932 3.89355 8.74316C3.89355 8.50316 3.95355 8.44318 4.19355 8.44318C5.08355 8.44318 5.97355 8.44318 6.86355 8.44318C7.07355 8.44318 7.14355 8.4932 7.14355 8.7132C7.14355 12.2199 7.14355 15.7298 7.14355 19.2432C7.14355 19.4432 7.07355 19.4932 6.88355 19.4832C5.98355 19.4832 5.08355 19.4832 4.17355 19.4832C3.95355 19.4832 3.89355 19.4332 3.89355 19.2032C3.90355 17.4632 3.89355 15.7232 3.89355 13.9732Z" fill="#020201"/>
<path d="M5.50379 7.14319C5.07414 7.14319 4.66209 6.97251 4.35828 6.6687C4.05447 6.36489 3.88379 5.95284 3.88379 5.52319C3.88379 5.09354 4.05447 4.68149 4.35828 4.37769C4.66209 4.07388 5.07414 3.9032 5.50379 3.9032C5.93344 3.9032 6.34549 4.07388 6.6493 4.37769C6.95311 4.68149 7.12379 5.09354 7.12379 5.52319C7.12379 5.95284 6.95311 6.36489 6.6493 6.6687C6.34549 6.97251 5.93344 7.14319 5.50379 7.14319Z" fill="#020201"/>
</svg>
