<svg width="113" height="28" viewBox="0 0 113 28" fill="none" xmlns="http://www.w3.org/2000/svg">
<path d="M112.994 13.9375V9.96715C112.994 7.29329 112.994 4.62046 112.994 1.94868C113.001 1.70553 112.957 1.46351 112.866 1.23791C112.71 0.867107 112.446 0.551085 112.107 0.330797C111.768 0.110508 111.369 -0.00388858 110.964 0.00244688H94.9371C92.2449 0.00244688 89.5535 0.00244688 86.8628 0.00244688C86.1479 0.00244688 85.573 0.301388 85.1397 0.858787C84.8472 1.23713 84.7418 1.67231 84.7426 2.14486C84.7468 4.34176 84.7468 6.53918 84.7426 8.73713C84.7426 14.4061 84.7426 20.0751 84.7426 25.744C84.7365 26.0261 84.7628 26.3079 84.8212 26.584C84.995 27.3275 85.5589 27.8849 86.3084 27.969C86.4936 27.9879 86.6797 27.9967 86.8659 27.9954H110.293C110.391 27.9954 110.491 27.9993 110.588 27.9954C111.296 27.9596 111.931 27.7315 112.443 27.2232C112.625 27.0525 112.768 26.8464 112.864 26.6179C112.961 26.3893 113.008 26.1434 113.003 25.8958C112.989 21.9107 112.994 17.9241 112.994 13.9375ZM92.8271 23.5689C92.8271 23.9683 92.8271 23.9699 92.4221 23.9699C91.352 23.9699 90.2814 23.9699 89.2103 23.9699C89.1317 23.9699 89.053 23.9699 88.9744 23.9644C88.8635 23.9644 88.8171 23.9006 88.8124 23.7986C88.8124 23.7114 88.8069 23.6234 88.8069 23.5362C88.8069 19.3936 88.8069 15.2513 88.8069 11.1092C88.8069 10.6187 88.8069 10.667 89.2583 10.6662C90.2995 10.6662 91.3408 10.6662 92.382 10.6662C92.4213 10.6662 92.4607 10.6662 92.5 10.6662C92.8216 10.6709 92.8256 10.6709 92.8256 10.9971C92.8256 13.1068 92.8256 15.2168 92.8256 17.327L92.8271 23.5689ZM90.7958 8.4919C90.2987 8.49036 89.8132 8.34315 89.4006 8.06882C88.9879 7.7945 88.6666 7.40535 88.4771 6.95046C88.2876 6.49558 88.2384 5.99533 88.3358 5.51282C88.4331 5.03031 88.6727 4.58714 89.0241 4.23921C89.3756 3.89128 89.8233 3.65418 90.3108 3.55781C90.7982 3.46144 91.3035 3.51012 91.7631 3.69771C92.2226 3.88529 92.6157 4.20339 92.8928 4.61186C93.17 5.02034 93.3187 5.5009 93.3202 5.99294C93.3206 6.32123 93.2556 6.64636 93.1289 6.94973C93.0022 7.2531 92.8163 7.52875 92.5818 7.76088C92.3473 7.99302 92.0688 8.17707 91.7623 8.30251C91.4559 8.42795 91.1274 8.49231 90.7958 8.4919ZM108.974 20.2113C108.982 21.3191 108.974 22.4277 108.974 23.5362C108.974 23.6234 108.974 23.7106 108.97 23.7986C108.972 23.8201 108.97 23.8419 108.963 23.8625C108.956 23.883 108.945 23.9018 108.93 23.9177C108.915 23.9335 108.896 23.9459 108.876 23.9541C108.856 23.9623 108.834 23.9661 108.812 23.9652C108.743 23.9652 108.675 23.9699 108.606 23.9699H105.303C105.254 23.9699 105.205 23.9699 105.155 23.9699C105.011 23.9753 104.934 23.9146 104.935 23.7651C104.935 23.6686 104.935 23.5713 104.935 23.474C104.935 21.316 104.935 19.1572 104.926 16.9992C104.932 16.364 104.78 15.7372 104.484 15.1737C104.072 14.4045 103.439 13.9818 102.54 13.9912C102.343 13.9886 102.147 14.0008 101.952 14.0277C100.83 14.2099 100.122 14.8592 99.7832 15.9195C99.6213 16.451 99.5431 17.0039 99.5512 17.559C99.5512 19.5519 99.5512 21.5449 99.5512 23.5378C99.5512 23.9893 99.5779 23.9714 99.1218 23.9714H95.9674C95.8982 23.9714 95.8297 23.9714 95.7605 23.9714C95.5616 23.9597 95.5458 23.9442 95.5333 23.7496C95.5278 23.6624 95.5333 23.5752 95.5333 23.4872C95.5333 19.3752 95.5333 15.263 95.5333 11.1504C95.5333 10.6211 95.5042 10.6717 96.0051 10.6701C96.9488 10.6701 97.8926 10.6701 98.8363 10.6701H98.9543C99.3184 10.6701 99.3192 10.6701 99.32 11.0485C99.32 11.4377 99.32 11.827 99.32 12.2162C99.3083 12.3232 99.3198 12.4315 99.3538 12.5338C99.3855 12.5154 99.4148 12.4931 99.4411 12.4676C100.077 11.5747 100.979 11.0664 102.008 10.7612C103.293 10.3821 104.591 10.4218 105.876 10.7612C107.287 11.1357 108.162 12.0644 108.585 13.4299C108.798 14.1484 108.919 14.8907 108.945 15.6392C109.014 17.162 108.962 18.6855 108.974 20.2113Z" fill="white"/>
<path d="M25.3995 12.4614C25.4278 12.444 25.4542 12.4237 25.4781 12.4007C26.2221 11.4097 27.2626 10.8935 28.4438 10.6382C29.6589 10.3614 30.929 10.4387 32.1007 10.8608C33.3976 11.3318 34.173 12.2878 34.5882 13.5614C34.7826 14.1743 34.9019 14.8082 34.9437 15.4492C34.9772 15.9044 34.9938 16.3611 34.9932 16.8194C34.9896 19.0459 34.9896 21.2726 34.9932 23.4996C34.9932 23.9776 34.9932 23.9784 34.5017 23.9784H31.4346C31.356 23.9784 31.2773 23.9784 31.1987 23.9784C30.9895 23.9652 30.9627 23.9387 30.947 23.7394C30.9399 23.6327 30.947 23.5253 30.947 23.4187C30.947 21.3666 30.947 19.3147 30.947 17.2631C30.9521 16.7665 30.8902 16.2714 30.763 15.791C30.3886 14.4208 29.3907 13.795 27.9821 14.0472C26.9134 14.2379 26.2402 14.8856 25.8651 15.8665C25.6682 16.3974 25.5709 16.9593 25.578 17.5247V23.5059C25.578 23.9807 25.578 23.9815 25.0873 23.9815H21.9864C21.8975 23.9815 21.8094 23.9815 21.7213 23.9761C21.6966 23.9777 21.6717 23.9742 21.6485 23.9657C21.6252 23.9573 21.6039 23.9441 21.5861 23.927C21.5683 23.9099 21.5544 23.8892 21.5452 23.8665C21.5359 23.8437 21.5316 23.8192 21.5326 23.7947C21.5239 23.7075 21.5239 23.6203 21.5239 23.5323C21.5239 19.3897 21.5239 15.2471 21.5239 11.1045C21.5239 11.0562 21.5239 11.0072 21.5239 10.9589C21.5373 10.6989 21.5601 10.6678 21.8157 10.667C22.8868 10.6628 23.9577 10.6628 25.0283 10.667C25.3051 10.667 25.3295 10.695 25.3326 10.9714C25.3381 11.4089 25.3326 11.8464 25.3326 12.2847C25.3278 12.3173 25.3314 12.3507 25.3431 12.3816C25.3548 12.4125 25.3742 12.4399 25.3995 12.4614Z" fill="white"/>
<path d="M64.02 14.2659C63.2729 12.3197 61.8722 11.085 59.8031 10.66C58.2066 10.3218 56.5457 10.4433 55.0169 11.0103C53.1357 11.7024 51.9089 13.0196 51.3993 14.9417C50.9227 16.6939 51.035 18.552 51.7193 20.2354C52.2501 21.6162 53.2899 22.7465 54.6291 23.3984C55.4664 23.8138 56.38 24.0567 57.3148 24.1123C58.9034 24.219 60.4535 24.0516 61.9351 23.4374C62.7036 23.1301 63.3918 22.6548 63.9484 22.047C64.1222 21.8555 64.1214 21.8212 63.939 21.6741C63.2317 21.1032 62.5224 20.5336 61.8109 19.9653C61.6261 19.8189 61.6143 19.822 61.4523 19.9995C60.5345 21.0053 59.3855 21.4787 58.0226 21.4662C56.2885 21.4491 55.2992 20.2985 54.9854 18.9844C54.8847 18.5609 54.9327 18.5118 55.3786 18.5111H59.7402C61.2234 18.5111 62.7066 18.5111 64.1899 18.5111C64.5115 18.5111 64.5257 18.5009 64.5508 18.1919C64.6594 16.8505 64.5021 15.5271 64.02 14.2659ZM60.1924 15.9786H57.8079C56.9743 15.9786 56.1399 15.9786 55.3063 15.9786C54.9602 15.9786 54.9311 15.9389 54.9964 15.6073C55.1457 14.8448 55.5859 14.1685 56.2255 13.7187C56.8651 13.269 57.6551 13.0802 58.4316 13.1916C59.546 13.3528 60.4401 14.2589 60.6454 15.4345C60.7382 15.967 60.7272 15.9802 60.1924 15.981V15.9786Z" fill="white"/>
<path d="M1.50925e-06 13.9872V4.50826C1.50925e-06 4.00224 6.75004e-07 4.00146 0.521408 4.00146H3.55312C3.64199 4.00146 3.73007 4.00146 3.81815 4.00146C3.9605 4.00146 4.03836 4.06764 4.04072 4.21244C4.04072 4.32922 4.04543 4.44599 4.04543 4.56198C4.04543 9.50125 4.04543 14.4403 4.04543 19.379C4.04543 19.5051 4.05015 19.6312 4.04543 19.7581C4.04543 19.9053 4.12408 19.9691 4.26328 19.9714C4.38124 19.9714 4.49921 19.9777 4.61639 19.9777H11.6581C12.1174 19.9777 12.1182 19.9777 12.1182 20.4175C12.1182 21.4482 12.1182 22.4787 12.1182 23.5089C12.1182 23.5766 12.1182 23.6451 12.1182 23.7129C12.1041 23.9332 12.0773 23.9589 11.8532 23.9713C11.7745 23.976 11.6959 23.9713 11.6173 23.9713H0.513545C-0.00471723 23.9713 1.50925e-06 24.0095 1.50925e-06 23.4591V13.9872Z" fill="white"/>
<path d="M14.7993 17.2918V11.1082C14.7993 10.6622 14.7993 10.6614 15.2594 10.6614H18.3831C18.4421 10.6614 18.5011 10.6614 18.5601 10.6614C18.8125 10.6723 18.8361 10.6964 18.8463 10.9572C18.8463 11.0249 18.8463 11.0934 18.8463 11.1612C18.8463 15.2649 18.8463 19.368 18.8463 23.4707C18.8463 24.0156 18.8463 23.9767 18.3265 23.9775C17.3246 23.9775 16.3226 23.9775 15.3207 23.9775C15.2523 23.9775 15.1831 23.9775 15.1147 23.9775C14.8261 23.9689 14.8056 23.9479 14.8001 23.6505C14.8001 23.554 14.8001 23.4567 14.8001 23.3594L14.7993 17.2918Z" fill="white"/>
<path d="M16.8746 3.60597C17.3533 3.60627 17.8212 3.74714 18.219 4.01075C18.6169 4.27435 18.9268 4.64885 19.1096 5.08686C19.2923 5.52486 19.3398 6.00669 19.2458 6.47138C19.1519 6.93607 18.9208 7.36273 18.5819 7.6974C18.2429 8.03206 17.8113 8.25968 17.3416 8.35146C16.8719 8.44323 16.3853 8.39503 15.9433 8.21297C15.5013 8.0309 15.1238 7.72314 14.8585 7.32864C14.5933 6.93414 14.4522 6.47061 14.4531 5.99671C14.4531 5.68223 14.5158 5.37084 14.6376 5.08038C14.7593 4.78991 14.9378 4.52608 15.1627 4.30399C15.3877 4.08191 15.6547 3.90594 15.9484 3.78616C16.2421 3.66638 16.5569 3.60515 16.8746 3.60597Z" fill="white"/>
<path d="M80.7271 4.2218C80.7216 4.08401 80.6563 4.0046 80.5092 4.00538C80.4306 4.00538 80.352 4.00538 80.2733 4.00538H77.1496C76.6856 4.00538 76.684 4.00537 76.684 4.48025C76.684 6.90136 76.684 9.32247 76.684 11.7436C76.684 11.8783 76.7068 12.0153 76.6502 12.164C76.5307 12.1406 76.4843 12.0589 76.4253 11.9981C75.9444 11.5078 75.3586 11.1306 74.7108 10.8942C73.8979 10.5939 73.0319 10.4596 72.1651 10.4995C69.5951 10.5969 67.699 11.7825 66.6035 14.0806C65.6338 16.1156 65.6306 18.2354 66.4462 20.3202C67.2232 22.2984 68.7001 23.5377 70.8022 24.0071C71.9245 24.2578 73.0499 24.1808 74.1635 23.9387C75.152 23.7238 76.0368 23.3011 76.7524 22.5732C76.7925 22.5335 76.8311 22.4813 76.9011 22.4875C76.9797 22.5654 76.9514 22.6697 76.953 22.7623C76.9569 23.0543 76.953 23.3462 76.953 23.6381C76.9577 23.9495 76.9829 23.9791 77.2848 23.9799C78.3261 23.983 79.3673 23.983 80.4086 23.9799C80.6862 23.9799 80.7129 23.9472 80.7232 23.6825C80.7232 23.6335 80.7232 23.5852 80.7232 23.5369V4.45535C80.7326 4.3775 80.7302 4.29965 80.7271 4.2218ZM76.5519 19.1688C76.0376 20.3078 75.1064 20.9267 73.8678 21.1034C73.7891 21.1143 73.7105 21.1166 73.6318 21.1213L73.3228 21.1392C71.6925 21.1641 70.413 20.2727 69.9214 18.7477C69.5817 17.7411 69.6028 16.6493 69.9812 15.6563C70.3886 14.5796 71.1609 13.8829 72.2965 13.6065C73.0642 13.4172 73.8703 13.4463 74.622 13.6906C75.557 13.988 76.231 14.5874 76.5991 15.4811C77.1047 16.7135 77.0985 17.9606 76.5519 19.1727V19.1688Z" fill="white"/>
<path d="M51.3684 23.9262C51.2725 24.004 51.171 23.9768 51.0766 23.9768C49.7208 23.9768 48.3658 23.9729 47.01 23.983C46.9039 23.9886 46.7983 23.9661 46.704 23.9178C46.6097 23.8695 46.5302 23.7971 46.4736 23.7082C45.1057 21.8668 43.7339 20.0288 42.3582 18.1941C42.2182 18.0065 42.0798 17.8174 41.9367 17.6321C41.891 17.5729 41.858 17.4935 41.7542 17.4764C41.6944 17.5799 41.718 17.6975 41.7172 17.808C41.7172 19.6847 41.7172 21.5614 41.7172 23.4381C41.7172 24.0266 41.7345 23.9776 41.173 23.9783C40.1711 23.9783 39.1684 23.9783 38.1665 23.9783C38.0784 23.9783 37.9895 23.9783 37.9015 23.9783C37.7166 23.9635 37.6875 23.934 37.6726 23.7448C37.6655 23.6576 37.6687 23.5696 37.6687 23.4824V4.51761C37.6687 4.00224 37.6687 4.00146 38.1806 4.00146H41.2163C41.2949 4.00146 41.3736 4.00146 41.4522 4.00146C41.674 4.01548 41.7015 4.04195 41.7141 4.26305C41.7204 4.3697 41.7141 4.47712 41.7141 4.58455C41.7141 8.20142 41.7141 11.8188 41.7141 15.4367C41.7141 15.5683 41.6937 15.7045 41.7495 15.8439C41.8926 15.812 41.9477 15.6999 42.0216 15.6166C43.401 14.0596 44.7778 12.5003 46.152 10.9386C46.2258 10.8443 46.3216 10.7691 46.4311 10.7194C46.5407 10.6696 46.6607 10.6468 46.7811 10.6529C48.0874 10.6638 49.3937 10.6568 50.7007 10.6591C50.8037 10.6591 50.9154 10.6303 51.0208 10.7105C51.0043 10.8351 50.9044 10.9067 50.8297 10.9908C49.2259 12.7927 47.6216 14.5941 46.0167 16.395C45.9837 16.4316 45.9499 16.4667 45.9184 16.504C45.7658 16.6854 45.7611 16.6932 45.8972 16.8785C45.9601 16.9657 46.0261 17.0505 46.0922 17.1346L51.204 23.6576C51.2717 23.7424 51.3574 23.8148 51.3684 23.9262Z" fill="white"/>
</svg>
