<svg width="70" height="70" viewBox="0 0 70 70" fill="none" xmlns="http://www.w3.org/2000/svg">
<path d="M46.7268 50.8093C46.7268 51.4559 46.4771 52.0761 46.0326 52.5333C45.5881 52.9905 44.9853 53.2473 44.3567 53.2473L41.9867 53.2473C38.2152 53.2473 34.5982 51.7062 31.9313 48.9629C29.2645 46.2196 27.7663 42.4989 27.7663 38.6194L27.7663 23.7841L22.3329 29.3732C22.1127 29.5998 21.8513 29.7794 21.5635 29.902C21.2758 30.0246 20.9675 30.0877 20.6561 30.0877C20.3446 30.0877 20.0363 30.0246 19.7486 29.902C19.4609 29.7794 19.1994 29.5998 18.9792 29.3732C18.759 29.1467 18.5844 28.8778 18.4652 28.5819C18.346 28.2859 18.2847 27.9687 18.2847 27.6484C18.2847 27.328 18.346 27.0108 18.4652 26.7149C18.5844 26.4189 18.759 26.15 18.9792 25.9235L26.439 18.256C26.9249 17.756 27.5017 17.3594 28.1366 17.0888C28.7715 16.8182 29.452 16.6789 30.1393 16.6789C30.8265 16.6789 31.507 16.8182 32.1419 17.0888C32.7768 17.3594 33.3537 17.756 33.8396 18.256L41.8859 26.533C42.3307 26.9904 42.5805 27.6109 42.5805 28.2579C42.5805 28.9048 42.3307 29.5253 41.8859 29.9827C41.4412 30.4402 40.838 30.6972 40.2091 30.6972C39.5802 30.6972 38.977 30.4402 38.5323 29.9827L32.5064 23.7841L32.5064 38.6194C32.5064 41.2057 33.5052 43.6862 35.2831 45.515C37.061 47.3439 39.4723 48.3713 41.9867 48.3713L44.3567 48.3713C44.9853 48.3713 45.5881 48.6282 46.0326 49.0854C46.4771 49.5426 46.7268 50.1627 46.7268 50.8093Z" fill="#00FFA9"/>
<circle cx="34.5369" cy="34.9631" r="32.5369" stroke="#00FFA9" stroke-width="4"/>
</svg>
